<?xml version="1.0" encoding="UTF-8" standalone="no"?>
<!-- Created with Inkscape (http://www.inkscape.org/) -->

<svg
   version="1.0"
   width="131.56599"
   height="131.56599"
   id="svg2"
   sodipodi:docname="forte.svg"
   inkscape:version="1.2.1 (9c6d41e410, 2022-07-14, custom)"
   xmlns:inkscape="http://www.inkscape.org/namespaces/inkscape"
   xmlns:sodipodi="http://sodipodi.sourceforge.net/DTD/sodipodi-0.dtd"
   xmlns="http://www.w3.org/2000/svg"
   xmlns:svg="http://www.w3.org/2000/svg">
  <sodipodi:namedview
     id="namedview6"
     pagecolor="#ffffff"
     bordercolor="#666666"
     borderopacity="1.0"
     inkscape:showpageshadow="2"
     inkscape:pageopacity="0.0"
     inkscape:pagecheckerboard="0"
     inkscape:deskcolor="#d1d1d1"
     showgrid="false"
     inkscape:zoom="2.9602411"
     inkscape:cx="-26.1803"
     inkscape:cy="57.59666"
     inkscape:window-width="1920"
     inkscape:window-height="1020"
     inkscape:window-x="0"
     inkscape:window-y="32"
     inkscape:window-maximized="1"
     inkscape:current-layer="svg2" />
  <defs
     id="defs4" />
  <path
     d="m 80.15938,51.0581 h 10.28129 c 1.43032,-0.0363 2.62108,-0.53 3.57231,-1.4812 0.9511,-0.95113 1.44484,-2.1419 1.4812,-3.57231 -0.0364,-1.43034 -0.5301,-2.62111 -1.4812,-3.57232 -0.95123,-0.95112 -2.14199,-1.44485 -3.57231,-1.4812 h -7.31889 c 1.17983,-5.24587 2.78447,-10.08882 4.81391,-14.52886 2.02934,-4.43991 5.24587,-6.79967 9.6496,-7.07928 h 1.21982 c 0.99829,-0.0253 1.87685,0.0691 2.63566,0.28318 0.75869,0.21426 1.15803,0.70073 1.19804,1.45942 -0.27598,2.43606 -1.37962,4.05522 -3.31093,4.85747 -1.93143,0.80238 -3.03507,2.37797 -3.31092,4.72678 0.058,2.14925 0.81315,3.94993 2.26537,5.40203 1.45209,1.45222 3.25277,2.20734 5.40203,2.26537 3.04584,-0.14516 5.31846,-1.55376 6.81789,-4.22578 1.49928,-2.67192 2.24714,-5.73597 2.24359,-9.19217 -0.10899,-4.38183 -1.59019,-8.034 -4.44361,-10.95655 -2.85357,-2.92239 -6.42588,-4.4399 -10.71694,-4.55252 -8.09222,0.30141 -15.43288,3.53246 -22.022,9.69317 -6.58921,6.16086 -11.44668,13.44343 -14.57242,21.84774 h -9.23574 c -1.43039,0.0363 -2.62116,0.53008 -3.57231,1.4812 -0.95118,0.95121 -1.44491,2.14198 -1.4812,3.57232 0.0363,1.43041 0.53002,2.62118 1.4812,3.57231 0.95115,0.9512 2.14192,1.44493 3.57231,1.4812 h 6.44759 l -11.5011,45.83016 c -0.91124,3.92445 -2.35614,7.44593 -4.3347,10.56446 -1.97857,3.11849 -4.77397,4.76669 -8.38622,4.9446 h -1.04556 c -1.08185,0.029 -2.01123,-0.0726 -2.78814,-0.30495 -0.7769,-0.23237 -1.18351,-0.76967 -1.21982,-1.6119 0.27592,-2.34888 1.37956,-3.92448 3.31093,-4.72678 1.93137,-0.80233 3.03501,-2.42149 3.31092,-4.85747 -0.0472,-2.14195 -0.78053,-3.91358 -2.20002,-5.31491 -1.41948,-1.40134 -3.24194,-2.12742 -5.46738,-2.17823 -2.96966,0.13432 -5.2205,1.52113 -6.75255,4.16043 -1.53201,2.63929 -2.30165,5.72513 -2.30893,9.25752 0.10893,4.37461 1.59013,7.99774 4.44361,10.86941 2.8535,2.87162 6.42581,4.36008 10.71694,4.4654 5.7484,-0.22915 11.17409,-2.7914 16.27709,-7.68677 5.10298,-4.89541 9.54766,-10.74922 13.33405,-17.56145 3.78635,-6.81224 6.57879,-13.20819 8.37736,-19.18787 z"
     id="text2502"
     style="font-style:normal;font-variant:normal;font-weight:normal;font-stretch:normal;font-size:174.261px;font-family:Emmentaler;-inkscape-font-specification:Emmentaler;text-align:center;text-anchor:middle;fill:#ffffff;fill-opacity:1;stroke:#000000;stroke-width:3;stroke-linecap:butt;stroke-linejoin:miter;stroke-opacity:1;stroke-dasharray:none" />
</svg>
