<?xml version="1.0" encoding="utf-8"?>
<!-- Generator: Adobe Illustrator 24.1.2, SVG Export Plug-In . SVG Version: 6.00 Build 0)  -->
<svg version="1.1" id="Layer_1" xmlns="http://www.w3.org/2000/svg" xmlns:xlink="http://www.w3.org/1999/xlink" x="0px" y="0px"
	 viewBox="0 0 1056 1022" style="enable-background:new 0 0 1056 1022;" xml:space="preserve">
<style type="text/css">
	
		.st0{fill-rule:evenodd;clip-rule:evenodd;fill:#F45B49;stroke:#1C2628;stroke-width:2.13;stroke-linecap:round;stroke-linejoin:round;}
	.st1{fill-rule:evenodd;clip-rule:evenodd;fill:#F3A13B;}
	
		.st2{fill-rule:evenodd;clip-rule:evenodd;fill:#1C2628;stroke:#1C2628;stroke-width:2.13;stroke-linecap:round;stroke-linejoin:round;}
	.st3{fill:none;stroke:#1C2628;stroke-width:2.13;stroke-linecap:round;stroke-linejoin:round;}
	.st4{fill:#F3A13B;}
	.st5{fill:#1C2628;stroke:#1C2628;stroke-width:2.13;stroke-linecap:round;stroke-linejoin:round;}
	
		.st6{fill-rule:evenodd;clip-rule:evenodd;fill:#FAFCFF;stroke:#1C2628;stroke-width:2.13;stroke-linecap:round;stroke-linejoin:round;}
	.st7{fill-rule:evenodd;clip-rule:evenodd;fill:#FB564C;}
	.st8{fill-rule:evenodd;clip-rule:evenodd;fill:#FAF6EB;}
	
		.st9{fill-rule:evenodd;clip-rule:evenodd;fill:#FAF6EB;stroke:#1C2628;stroke-width:2.13;stroke-linecap:round;stroke-linejoin:round;}
	
		.st10{fill-rule:evenodd;clip-rule:evenodd;fill:#47584E;stroke:#1C2628;stroke-width:2.13;stroke-linecap:round;stroke-linejoin:round;}
	
		.st11{fill-rule:evenodd;clip-rule:evenodd;fill:#F3A140;stroke:#1C2628;stroke-width:2.13;stroke-linecap:round;stroke-linejoin:round;}
	.st12{fill:#49574E;}
	.st13{fill:none;stroke:#FAF6EB;stroke-width:2.13;stroke-linecap:round;stroke-linejoin:round;}
	.st14{fill:#FAF6EB;stroke:#1C2628;stroke-width:2.13;stroke-linecap:round;stroke-linejoin:round;}
	.st15{fill:#F45B49;stroke:#1C2628;stroke-width:2.13;stroke-linecap:round;stroke-linejoin:round;}
	.st16{fill:none;stroke:#FFFFFF;stroke-width:2.13;stroke-linecap:round;stroke-linejoin:round;}
	
		.st17{fill-rule:evenodd;clip-rule:evenodd;fill:none;stroke:#FEFEFE;stroke-width:2.13;stroke-linecap:round;stroke-linejoin:round;}
	
		.st18{fill-rule:evenodd;clip-rule:evenodd;fill:none;stroke:#1C2628;stroke-width:2.13;stroke-linecap:round;stroke-linejoin:round;}
	.st19{fill-rule:evenodd;clip-rule:evenodd;fill:#49574E;}
	.st20{fill:#F55C4A;}
	.st21{fill:#FAF6EB;}
	
		.st22{fill-rule:evenodd;clip-rule:evenodd;fill:#47584E;stroke:#FAF6EB;stroke-width:2.13;stroke-linecap:round;stroke-linejoin:round;}
	.st23{fill-rule:evenodd;clip-rule:evenodd;fill:#1C2628;}
	.st24{fill-rule:evenodd;clip-rule:evenodd;fill:#F7AA9A;}
	
		.st25{fill-rule:evenodd;clip-rule:evenodd;fill:none;stroke:#FAF6EB;stroke-width:2.13;stroke-linecap:round;stroke-linejoin:round;}
	.st26{clip-path:url(#SVGID_2_);}
	.st27{clip-path:url(#SVGID_4_);}
	
		.st28{fill-rule:evenodd;clip-rule:evenodd;fill:none;stroke:#FFFDFD;stroke-width:2.13;stroke-linecap:round;stroke-linejoin:round;}
	.st29{clip-path:url(#SVGID_6_);}
	.st30{fill:#FB564C;}
	.st31{clip-path:url(#SVGID_8_);}
	.st32{clip-path:url(#SVGID_10_);}
	.st33{fill:#F3A140;stroke:#1C2628;stroke-width:2.13;stroke-linecap:round;stroke-linejoin:round;}
	
		.st34{clip-path:url(#XMLID_3_);fill-rule:evenodd;clip-rule:evenodd;fill:none;stroke:#1C2628;stroke-width:2.13;stroke-linecap:round;stroke-linejoin:round;}
	.st35{fill:none;stroke:#000000;stroke-width:6;stroke-linecap:round;stroke-linejoin:round;}
	.st36{fill-rule:evenodd;clip-rule:evenodd;fill:#F55C4A;}
	.st37{fill:#47584E;stroke:#1C2628;stroke-width:2.13;stroke-linecap:round;stroke-linejoin:round;}
	.st38{fill:#1C2628;}
</style>
<g>
	<path class="st0" d="M319.2,847.5c0,0-25.3,40.3-22.2,48.7c3.5,9.7,29,39,29,39l72.7-1.9l-32.4-11l-17.5-29.6l21.1-38.6
		L319.2,847.5z"/>
	<g>
		<path class="st1" d="M412.5,932.5l-44.5,1l-85.2-1.2l8.3-43.7l37.9-1c0,0-1.3-10,8.6-9.6c7.6,0.3,30,23.5,50.7,29.9
			C416.7,916.7,412.5,932.5,412.5,932.5z"/>
		<path class="st2" d="M412,926.8l-96.3-0.5c-2.8,0-5,2-5.1,4.5l0,1.6c0,2.5,2.2,4.5,5,4.5l96.3,0.5c2.8,0,5-2,5.1-4.5l0-1.6
			C417,928.8,414.8,926.8,412,926.8z"/>
		<path class="st2" d="M323.8,937l-45.5-0.7l2.8-23.9c0,0,23.1-1.3,31,6.1C320.1,926.1,323.8,937,323.8,937z"/>
		<path class="st2" d="M392.8,909.3l-53.4-32.7c0,0-8.5,1.3-10.7,4.8c-2.2,3.4,1.7,8.9,1.7,8.9s30.5,20.4,43.5,24.5
			C383,917.7,392.8,909.3,392.8,909.3z"/>
		<path class="st3" d="M344.8,896.4L326.2,931"/>
		<path class="st3" d="M291.1,888.6l-4.5,31.7"/>
	</g>
	<path class="st4" d="M582.1,480.4c-34.1,49.7-80.2,102.5-157.4,144s-186,71.6-234.1,28.3c-48.2-42.8-35-159.6-26.5-250.1
		c8.5-90,12.9-153.6,39.4-206.4c26.5-52.2,74.7-93.7,124.9-98.1c49.6-4.5,101.1,28.7,181.3,29.4c80.3,0.7,189.3-31.1,219.4-1.5
		c30.1,29.6-19.2,120.6-54.8,189.1C638.8,383.5,616.2,430.6,582.1,480.4z"/>
	<g>
		<path class="st0" d="M736.2,118.6c-6.9-6.9-68.2,36.8-68.2,36.8s-38.5,109.5-48,130.9c-9.6,21.6-44.4,78.4-44.4,78.4
			s-70.3-4.6-103.6,24.6c-19.5,17.1-42.3,80.3-42.3,80.3s-31.6,5.8-49.2-10.3c-10.1-9.2-21.1-36.1-28.3-48.6
			c-5.4-9.2-8.4-5.8-8.4-5.8l7.5,49.6l-18-3.8l19.9,32c0,0,66.3,57.6,92.4,40.4c26.1-17.2,46.3-47.7,46.3-47.7l0.1,73.1l122.9-40.7
			l1.4-79.3c0,0,42.4-66.5,61.7-136.9c9.1-33.4,19.6-101.2,19.6-101.2s40.3-12.6,45.3-43.1C746.1,127.6,744.5,126.9,736.2,118.6z"/>
		<g>
			<path class="st5" d="M732.6,128.3c-4-2.1-8.5-2.5-12.4-1.6c-2.3,0.5-4.3,1.4-6,2.5c-0.1-1-0.3-2-0.4-3.1c-0.2-2-0.4-4-0.6-6
				c1.9-1.7,3.7-3.4,5.4-5.4c4.1-4.6,7.1-10.2,8-16.4c0.9-6.1,1.6-12.3-0.1-17.9c-0.4-1.5-0.9-2.4-1.8-4.3c-0.3-0.7-0.9-2-1.7-3.1
				c-0.8-1.1-2.3-2-4-1.9c-3.3,0.4-4.9,2.3-6,3.7c-0.5,0.8-0.9,1.5-1.3,2.3c-0.2,0.4-0.3,0.7-0.5,1l-0.1,0.2
				c-0.1,0.2-0.1,0.2-0.1,0.4l-0.2,0.6c-1,3.1-1,6-0.9,8.8c0,2.7,0.1,5.4,0.1,8.1c-0.1,4.2,0.1,8.4,0.3,12.5c-1.5,1.7-3,3.3-4.7,4.8
				l-3,2.7c-1,0.9-2.1,1.9-3.2,3c-4.2,4.3-7.8,9.3-10,15.1c-2.3,5.7-2.5,12.7,0.2,18.4c2.6,5.7,7.4,9.7,12.5,12
				c5,2.2,10.2,3.1,15.3,3c0.4,2.7,0.7,5.2,1,7.7c1.3,6.5-1.2,12.1-5.3,13.9c-3,1.2-5.8,0.4-7.6-0.9c0.2,0,0.4,0.1,0.6,0.1
				c3,0.2,5.6-2,5.8-5c0.2-3-2-5.5-5-5.8c-3-0.2-5.5,2-5.8,5c0,0.2,0,0.5,0,0.7l0,0c0,0,0,0,0,0c0.1,1.1,0.5,2.2,1.2,3
				c0.2,0.3,0.3,0.5,0.6,0.8c0.8,1.1,2.1,2.3,4,3.1c1.9,0.8,4.2,1.2,6.8,0.5c2.6-0.7,5.1-2.8,6.4-5.8c0.6-1.5,1.1-3.1,1.2-4.8
				c0-1.8-0.1-3.4-0.3-5.1c-0.3-2.4-0.6-4.9-1-7.5c4.5-0.4,8.9-1.7,12.8-3.7c4.4-2.5,7.9-6.5,9.3-11.2c1.6-4.7,1.3-9.7-0.4-14.1
				C739.9,134.2,736.7,130.4,732.6,128.3z M715.1,84.9c0.9-2.1,2.7-7.9,6-6.7c2.1,0.8,2.2,3.6,2.1,5.5c-0.3,4.3-1.5,8.6-3.8,12.3
				c-2.2,3.6-4.4,6.9-6.9,10.2c-0.1-3.2-0.1-6.5,0.1-9.7C712.8,92.5,713.7,88.5,715.1,84.9z M704.2,160.8c-4.1-2.4-7.6-6-9.1-10.3
				c-1.5-4.3-0.9-8.9,1.2-13.2c2.2-4.2,5.7-7.9,9.5-11.2c0.9-0.8,1.9-1.6,3-2.4l1.6-1.2c0.4-0.3,0.8-0.6,1.1-0.9
				c0.2,1.6,0.3,3.2,0.5,4.7c0.2,1.4,0.3,2.7,0.5,4.1c-3.3,2.6-5.5,6.1-6.4,9.2c-1.5,5.3-0.6,9.4,0.3,11.9c0.4,1.3,0.9,2.2,1.2,2.8
				c0.3,0.6,0.5,0.9,0.5,0.9s-0.3-1.4-0.4-4c-0.1-2.5,0-6.3,2-10.2c0.8-1.6,2-3.2,3.5-4.5c0.7,5.7,1.5,11.2,2.2,16.4
				c0.5,4,1.1,7.9,1.6,11.6C712.5,164.3,708.1,163.1,704.2,160.8z M739.1,151.9c-0.8,4-3.6,7.8-7.6,9.8c-3.5,1.9-7.7,2.8-12,2.9
				c-0.6-3.8-1.2-7.8-1.9-12c-0.9-5.5-1.8-11.4-2.6-17.5c1.8-1.2,3.9-2.2,6.4-2.6c5.5-0.8,12,1.7,15.6,8.1
				C738.8,143.8,739.8,147.9,739.1,151.9z"/>
		</g>
		<path class="st0" d="M752.5,117.2l-0.8-1.9c-1.2-2.9-4.5-4.3-7.4-3.1l-16.9,6.5c-2.9,1.1-4.3,4.3-3.1,7.2l0.7,1.9
			c1.2,2.9,4.5,4.3,7.4,3.1l16.9-6.5C752.3,123.2,753.7,120,752.5,117.2z"/>
		<path class="st0" d="M752.6,130.4l-0.8-1.9c-1.2-2.9-4.5-4.3-7.4-3.1l-16.9,6.5c-2.9,1.1-4.3,4.3-3.1,7.2l0.8,1.9
			c1.2,2.9,4.5,4.3,7.4,3.1l16.9-6.5C752.4,136.5,753.8,133.3,752.6,130.4z"/>
		<path class="st0" d="M752,145l-0.8-1.9c-1.2-2.9-4.5-4.3-7.4-3.1l-16.9,6.5c-2.9,1.1-4.3,4.3-3.1,7.2l0.8,1.9
			c1.2,2.9,4.5,4.3,7.4,3.1l16.9-6.5C751.7,151.1,753.1,147.9,752,145z"/>
		<path class="st0" d="M692.7,178.5c1-7,2-21.1-3-26.7c-5-5.6,12.4-18.8,7.5-24.9c-8.1-10-27.5,28.4-27.5,28.4"/>
	</g>
	<path class="st2" d="M504.2,311.3c-9.7-31.4,3.1-55.6,47.9-49.9c5.2,0.7,11.4,1.3,16.1,4c21.2,12.4,17.2,26.8,19.8,29.7
		c7.6,8.7,11.2,42.2,14.4,51.6l-105-1.1L504.2,311.3z"/>
	<path class="st0" d="M531.2,766.1c0,0,16.6,82.9,31.2,128.2c10.5,32.6,15.7,45.3-9.6,47.9c-25.4,2.6-52.3-1.2-52.3-1.2l-46.3,5
		c0,0-17.6-0.6,0.4-13c17.8-12.3,46.9-14.8,54.7-31C517,885.6,467.4,794,467.4,794L531.2,766.1z"/>
	<path class="st0" d="M808.9,541.7c0,0,38.1-38.6,59.5-67.1c17.2-23,19.2-31.8,38.1-22.8c17.3,8.2,85.5-21.9,90.4-6.8
		c5.6,17.3-59.6,38.5-101.7,68.2c-31.4,22.1-42.2,56.6-42.2,56.6L808.9,541.7z"/>
	<path class="st0" d="M86.9,702.7c-6,4.5-13.4,9.5-17.4,16.2c-0.4,0.6-6.9,6.7-4.6,7.6c8.8,3.5,21.9-12.2,27.8-16.2
		c2.4-1.6,4.6-3.6,7-5.2c1-0.7,3.4-3.3,3-2.1c-1.9,5.7-10.8,9.9-14.4,14.7c-6.8,9.1,5.2,4.4,8.9,1.2c1.8-1.5,3.7-2.8,5.5-4.3
		c2.4-1.9,4.5-4.1,6.7-6.1c3.6-3.3,7.5-6.2,11.6-8.9"/>
	<path class="st2" d="M232.3,275.4c0.2-11.2-17.8-16.6-33-8.3c-15.2,8.3-16.1,32.5-18.8,37.6c-15,28.6,7.5,51.3,42,55.6
		c10,1.2,42.8-12.1,41.5-24.4c-1.3-12.4-38-6.3-40.6-17.6"/>
	<path class="st0" d="M175.3,578.2c0,0-9.6,108.8-19.1,120.3c-5.2,6.3-73.3,9.9-73.3,9.9s6.8,5.1,7.1,9.2c0.3,4.1-2.5,5.5-2.5,5.5
		s-18.3-5.3-20.5-10.9c-1.4-3.6,13.8-15.4,20.6-19.4c17.5-10.2,35-10.6,39-21.6c4-11,12.9-99.8,12.9-99.8L175.3,578.2z"/>
	<path class="st0" d="M239.9,872.8c0,0-39,67.4-34.5,79l112.2,3.2l-46.6-34l19.6-41.6L239.9,872.8z"/>
	<path class="st0" d="M559.2,332.5l-0.4,27.6l7,8.1c0,0,3.4,27.5-7.5,33.9c-11.9,7.1-38.7-6.8-47.8-9.1c-8.2-2.1,4.9-19.3,4.9-19.3
		l0.9-31.7l-0.8-12.3L559.2,332.5z"/>
	<path class="st0" d="M564.8,316.1c1.9-6.9,1.2-20.7-0.5-27c-3.1-11.4-6.3-6.4-17.9-9.6c-12.9-3.6-19.2-8.7-27.6,1.6
		c-3.3,4-13,19-14.5,24.4c-5.3,19.3,4.9,39,22.8,44c11.5,3.2,20.9,2.2,29.3-6C561.3,339,562.9,323,564.8,316.1z"/>
	<path class="st6" d="M538.8,314.3c0.9-2.7-1.6-5.9-5.5-7.2c-3.9-1.3-7.8-0.2-8.7,2.5c-0.9,2.7,1.6,5.9,5.5,7.2
		C534.1,318.1,537.9,317,538.8,314.3z"/>
	<path class="st6" d="M515.5,303.6c0.9-2.7-1.6-5.9-5.5-7.2c-3.9-1.3-7.8-0.2-8.7,2.5c-0.9,2.7,1.6,5.9,5.5,7.2
		C510.8,307.4,514.6,306.2,515.5,303.6z"/>
	<path class="st7" d="M555.2,363.3l2.8-28.2c0,0-22.7-5-28.2,0.9c-5.4,5.9,0.3,25.3,0.3,25.3l13.7,2.1"/>
	<path class="st2" d="M578.5,313.2c-5.4,9.6-14.5-12-14.5-12l-36.7-8.7l-2.6-18.7l-8.6,20.9l-13.1-0.3c0,0,10.4-26,13-28.5
		c10.7-10.2,28.9-9.7,40.7,0.1C566.6,274.2,589.7,293.4,578.5,313.2z"/>
	<path class="st0" d="M561.2,318.1c2.6-3.1,7.7,0,8.7,3c2,6.2-2.7,16.7-12.4,10.4"/>
	<path class="st2" d="M526.6,315.4c1.9,1.2,4.2,0.9,5.2-0.6c1-1.5,0.2-3.7-1.7-4.9c-1.9-1.2-4.2-0.9-5.2,0.6
		C523.9,312,524.7,314.2,526.6,315.4z"/>
	<path class="st2" d="M508.2,303.9c1.2-1.9,0.9-4.9-4.1-5.8c-1.8-0.3-1.6,0.6-2.9,2.4c-1.2,1.9,0.4,3.9,1.9,4.9
		C504.7,306.4,507,305.8,508.2,303.9z"/>
	<path class="st8" d="M415.8,602c-12.6,5.8-12.5-17.7-4-23.3C427.5,568.4,442.9,589.6,415.8,602z"/>
	<path class="st3" d="M563.8,324.2c-0.2,0.2-0.4,0.4-0.5,0.7"/>
	<path class="st9" d="M906.6,523.9c0,0-1.1,1.7-3.1,4.7C889.6,549.7,831,634,775.6,647c-12.5,2.9-27.6,2.9-43.8,1.1
		c-65.5-7.5-149.1-45.6-150.4-46.2h0l-59.7,84.8l43.4,124.9l-21.3,3.2L470.2,826c0,0-59.1-102.1-56.9-127.3
		c3.5-40.8,77.3-173.8,77.3-173.8l66.2-18.3l62.8-17.4l64.2,31.3l3.6,1.7l82.6,27.7l79.3-76.5L906.6,523.9z"/>
	<path class="st9" d="M637.3,468.1c0,0-31.9,6-46.5,8.8c-10.7,2-22.8,10.9-48.4,17.8c-1.7,0.5-3.5,0.9-5.3,1.4
		c-11.7,2.9-47.2,9-47.2,9l-2.8-42.7l-5.6-15.2c-2.6-7.1-2.6-14.8-0.1-21.9l11.9-33l7.9-22.1l14-4.1l-3,23.9l41.6-0.1l10.2-26.4
		l13.2-1.4l0.7,11c1,15.2,8.9,29.2,21.3,38l17.7,12.5l3.1,6.7L637.3,468.1z"/>
	<path class="st10" d="M446.6,720.9c-9.6,36.6-58.9,136.9-58.9,136.9l-60.7-5.8l-15,22l-90.6-2.4l11.7-25.2l56.1-121.1l-80.3-104.6
		l3.4-52.4l0.2-3.4l55.2-5.4l64.4-10.1C332.1,549.3,456.2,684.3,446.6,720.9z"/>
	<path class="st2" d="M315.6,732.3c-1.6,14.1-6.8,12.6-17.4,42.5c-8.8,24.6-5.6,26.7-12.5,36.9c-11.5,17-29.2,24.8-37.6,28.6
		c-6.3,2.8-11.1,4.9-14.9,6.1l56.1-121.1l-80.3-104.6l3.4-52.4c10.2,1.3,22.2,3.8,36.5,7.6c17.4,23.4,20.1,41.4,18.8,54
		c-1,9.8-4.4,16.4-0.7,25.1c5.2,12.4,17.3,10.9,30,22.3C312.6,691.6,317.5,715.5,315.6,732.3z"/>
	<path class="st10" d="M318.9,864c5,21-14,22-14,22l-74.7-0.8c-6.6,0-12-5.4-12-12l0,0c0-6.6,5.4-12,12-12"/>
	<path class="st10" d="M383,840.2c6,0,10.9,4.9,10.9,10.9l0,0c0,6-4.9,10.9-10.9,10.9l-51,0c-6,0-5.1-10.1-5.1-10.1"/>
	<path class="st11" d="M198.2,595.1l0.1,0.8l-1.2,27.8l120.2-25.6l2.4-26.8c-8.6,2.1-23.9,0-48.6,4.5
		C239.3,581.6,230.5,594.5,198.2,595.1z"/>
	<path class="st11" d="M320.9,571.1l8.5,20.7l39.3-15.5l-2.5-18.7C351.5,563,336.5,567.2,320.9,571.1z"/>
	<path class="st9" d="M361.8,523.9l-4.6-35.3v0l-1.8-13.7l-4.1-31.3v0l-4.8-36.1c0,0,19.6-35.6,27.9-83.8
		c2.7-15.5,3.8-34.9,4.1-54.1c0.1-5.1,0.1-10.2,0-15.2c-0.2-34.5-2.6-64.6-2.6-64.6l-58,2.9c0,0,0,48-7.8,88.8
		c-7.8,40.7-20.1,74.1-20.1,74.1l-18.8,16.3l-47,10.6c0,0-62.4,12.4-72,41.7c-4.6,13.9-8.4,31.5-11.5,48.8c-0.6,3.3-1.1,6.5-1.6,9.7
		c-1.8,10.8-3.2,21.2-4.3,30c-0.5,3.6-0.9,6.9-1.2,9.9c-1.2,9.9-1.8,16.2-1.8,16.2l-18.6,113.1l63,3.8l12-74l6.2-45.9l3.9,59.6
		c32.3-0.6,48.9-17.5,81.1-19.1c26.4-1.3,31.6-2.5,40.3-4.6c0,0,31.9-8.4,46.6-13.9L361.8,523.9z"/>
	<g>
		<g>
			<polygon class="st12" points="320.7,357.3 307.7,348.9 309,364.3 297,374.1 312.1,377.7 317.7,392.1 325.7,378.9 341.2,378 
				331.1,366.3 335,351.3 			"/>
			<path class="st12" d="M378.5,269.6l-3.2-0.6l-1.2,1l-6.6,5.5l-0.5-10.1l-8.6-5.4l9.5-3.6l2.4-9.8l5.3,6.7l1,1.2l1.8-0.1
				C378.6,259.4,378.6,264.5,378.5,269.6z"/>
			<path class="st12" d="M361.8,523.9c-1.2,0.2-2.6,0-3.6-0.8l-19.6-13.6l-15.6,5.9l-6.7,2.6c-1.7,0.6-3.7,0.3-5-1
				c-1.4-1.3-1.9-3.2-1.3-4.9l6.9-22.9l-14.9-18.6c-0.7-0.9-1.1-2-1.1-3c0-0.7,0.1-1.4,0.4-2c0.8-1.7,2.4-2.8,4.3-2.8l23.9-0.5
				l13.1-19.9c1-1.5,2.8-2.4,4.6-2.2c1.8,0.2,3.4,1.5,4,3.2l0.1,0.3v0l4.1,31.3l-1.4-0.4c-1.5-0.4-2.8-1.6-3.3-3.1l-3.1-8.7
				l-2.4-6.9l-9.1,13.9c-0.9,1.3-2.4,2.2-4,2.2l-16.6,0.3l10.4,13c1,1.2,1.3,2.9,0.9,4.4l-4.8,15.9l6.9-2.6l8.7-3.3
				c1.5-0.6,3.2-0.4,4.5,0.6l13.6,9.5l-0.8-16.6c0-0.8,0.1-1.6,0.4-2.3c0.3-0.7,0.8-1.3,1.5-1.8l0.4-0.3L361.8,523.9z"/>
			<polygon class="st12" points="246.6,535 232.3,541 219.3,532.6 220.6,548 208.6,557.9 221,560.8 223.7,561.4 229.3,575.9 
				237.4,562.6 252.8,561.7 242.7,550 243.4,547.3 			"/>
			<polygon class="st12" points="216.7,424.2 208.2,418.7 209,428.8 201.2,435.2 211,437.5 214.7,447 220,438.3 230.1,437.7 
				223.5,430 226,420.2 			"/>
			<path class="st12" d="M164,480.8l-14.6,18.9l7.3,22.7c0.6,1.8,0.1,3.7-1.2,5c-1.3,1.3-3.3,1.7-5,1.1l-17-6.1
				c0.4-3,0.8-6.3,1.2-9.9l9.8,3.5l-5.1-15.8c-0.5-1.5-0.2-3.2,0.8-4.4l10.1-13.1l-11.3,0c0.5-3.2,1.1-6.4,1.6-9.7l19.5,0
				c1.8,0,3.5,1.1,4.3,2.7C165.3,477.3,165.1,479.3,164,480.8z"/>
		</g>
	</g>
	<path class="st0" d="M229.2,337.2l-1.9,41.3c0,0,28.7,3.9,37.1,0.3c8.4-3.6,21.5-10.3,21.5-10.3l-16.6-39.3L229.2,337.2z"/>
	<path class="st3" d="M325.7,596.5c0,0,82.4,105.5,78.1,125.6c-4.3,20.1-85.1,142.1-85.1,142.1l-69-2.2"/>
	<polygon class="st2" points="263.7,392.5 250.7,401 263,405.5 	"/>
	<path class="st9" d="M264.4,378.7l-37.6-11.8l-4.6,13.4c-1.7,5,0.9,10.5,5.9,12.3l22.6,8.3l13-8.4L264.4,378.7z"/>
	<polygon class="st2" points="274.1,402.9 284.2,392.9 270.1,391.4 	"/>
	<path class="st9" d="M284.5,360.1l-19.1,17.9l4.6,13.3l14.2,1.6l8-7.8c3.7-3.6,4.2-9.5,1-13.6L284.5,360.1z"/>
	<path class="st3" d="M183.8,448.6c0,0,5.5,10.4,10.3,42.3c1.7,11.1,0.3,71.5,0.3,71.5"/>
	<path class="st0" d="M228.3,348.1c-20.8-6.5-32.8-27.4-26.8-46.7c3-9.6,0.6-21.6,9.3-25.8c8.8-4.2,28.8-0.6,39.2,2.6
		c20.8,6.5,32.8,27.4,26.8,46.7c-3.3,10.5-7.1,20.5-16.9,24.5C251.6,352.7,237.8,351.1,228.3,348.1z"/>
	<path class="st0" d="M240.5,284.6c7.2-1.8,22.2-8.8,24.7-5.3c3.3,4.6-6.3,12-7.8,12.4"/>
	<path class="st2" d="M256.5,323.6c-5.7,3.1-12.3-4.5-12.3-4.5l14.8-11.1C259.1,307.9,267.2,317.8,256.5,323.6z"/>
	<path class="st6" d="M225.7,311.4c-2.6-1.7-2.7-6.1-0.2-9.8c2.4-3.8,6.5-5.5,9.1-3.8c2.6,1.7,2.7,6.1,0.2,9.8
		C232.3,311.4,228.3,313.1,225.7,311.4z"/>
	<path class="st6" d="M238.9,284.3c-2.4-1.5-2.8-5.1-0.8-8.1c2-2.9,5.5-4.1,8-2.5c2.4,1.5,2.8,5.1,0.8,8.1
		C244.9,284.7,241.3,285.8,238.9,284.3z"/>
	<path class="st7" d="M229.9,355.4l-1.4-15c0,0,17-12.7,24.2-7.8c7.2,5,5.8,26.8,5.8,26.8l-14,5.5"/>
	<path class="st2" d="M211.1,269.1c3.3-1.8-4.6-4.1-0.6-3.6c12.8,1.4,13.1,12.2,9.1,20.8c-3.8,8.2-9.9,15.3-9.9,15.3
		s17.1,24.6,6.6,35.3c-6.9,7-19.2,5.7-23.2-2.6c-3.3-6.8-3.5-14.3-2.4-21.6c1.1-7.5,5.3-14.6,6.1-22"/>
	<path class="st2" d="M198.8,285.7c-30.3-5.9-34.8,17.6-21.2,25.7c-16.5,4-18,35.6,10.4,35.2c-3.9,3.5,13.9,20.5,20.6-4.5"/>
	<path class="st0" d="M218,334.8c0.7-1-6.1,1.5-2.2,10c2.7,6,17.4,7.8,17.1-3.1"/>
	<path class="st3" d="M221.8,342.2l0.9,0.1l1.5,0l1.7-0.6l0,0"/>
	<path class="st2" d="M233.8,298.8c-1.8-1-4.1-0.3-5,1.6c-0.9,1.8-0.3,4.1,1.6,5c1.8,1,4.1,0.3,5-1.6
		C236.3,302,235.6,299.7,233.8,298.8z"/>
	<path class="st2" d="M245.4,274.5c-1.7-0.9-3.7-0.5-4.4,1c-0.8,1.4,0,3.3,1.7,4.2c1.7,0.9,3.7,0.5,4.4-1
		C247.9,277.3,247.1,275.4,245.4,274.5z"/>
	<path class="st13" d="M222.2,275.1c0.7-4-3.2-7.7-5.6-10.4"/>
	<path class="st13" d="M190.2,330.5c-2.6-5.3-6.4-24.6,0.2-27.8c6-3,8.6,12,5.9,10.3c-10.3-6.6-2.3-29.3,6.7-34.1"/>
	<path class="st2" d="M251.3,350.4l22.1-12.3l4.4,15.5c0,0-7.8,0.6-15-0.7C255.7,351.6,251.3,350.4,251.3,350.4z"/>
	<path class="st2" d="M221.9,338.8c0-2.9,2.4-5.2,5.4-5.2s5.4,2.3,5.4,5.2c0,2.9-2.4,5.2-5.4,5.2C224.3,344,221.9,341.6,221.9,338.8
		z"/>
	<path class="st3" d="M230.7,338.2c7.7,7.7,18.8,26.7,26.3,46.8c6.6,17.8-20.1,58.7-21.4,74.6c-1.5,17.1,26,69.6,10.2,100
		c-13.4,25.8-39.8,23.2-53.6,52.3c-13.8,29.1-27.2,88.9-91.9,97.8"/>
	<path class="st3" d="M502.1,323.5c9.1,22.5-78.7,31.2-118.9,80.3c-40.2,49.1-120.4,1-132.8,20.1"/>
	<path class="st3" d="M336.2,839.2c0,0,33.9,1.4,41.1,0.5"/>
	<path class="st3" d="M117.2,626.5l54.5,7.5"/>
	<path class="st3" d="M318.9,216.2l58-2"/>
	<path class="st2" d="M536.6,324.4c-2.5,5.3-9.8,3.5-14.9,5.3c0,0,4,8.8,12.7,4.2C540.1,330.8,536.6,324.4,536.6,324.4z"/>
	<path class="st3" d="M515.6,562.3c0,0,19.5,4.9,25.8,11.6c7.2,7.8,31.4,22.9,40,28"/>
	<path class="st13" d="M520.4,311.7c0-7.6,6.6-13.7,14.8-13.7c8.2,0,14.8,6.1,14.8,13.7c0,7.6-6.6,13.7-14.8,13.7
		C527,325.4,520.4,319.3,520.4,311.7z"/>
	<path class="st13" d="M491,302.8c0-7.6,6.6-13.7,14.8-13.7c8.2,0,14.8,6.1,14.8,13.7c0,7.6-6.6,13.7-14.8,13.7
		C497.6,316.5,491,310.3,491,302.8z"/>
	<path class="st0" d="M517.7,312.6c-6.7-1.2-12.6-5.9-14.7-2.5c-2.7,4.4,6.1,11.6,7.5,12"/>
	<path class="st13" d="M528,269c6,0,5.9,18.3,7,25"/>
	<path class="st13" d="M552,261c22,21,20,50.5,22.8,65.7"/>
	<path class="st13" d="M582.7,302.7c2.1,11.6,4.8,23.1,7.3,34.7"/>
	<path class="st3" d="M519.5,415c-2.7,17.8-12.6,37.2-21.9,47.2c-1.7,1.8-4,4-6.5,5.8"/>
	<path class="st3" d="M487.1,436c11.3-15.3,43.8-48.3,65.3-32c19.7,14.9-17,69.5-28.7,85"/>
	<path class="st3" d="M508.9,488.3c3.6-8.2,9.8-17.2,11.3-19.3c12.5-17.7,48.1-63.1,74.5-54.7c0.5,0.1,0.9,0.3,1.3,0.5"/>
	<path class="st3" d="M604.8,415c0.2,3.4-8.8,42.3-24.8,63.8"/>
	<path class="st3" d="M565.1,476.9c1.1-2.8,2.3-5.6,3.6-8.3c7.2-15.5,17.9-32.6,31.7-44.8"/>
	<path class="st2" d="M86.1,703.8l29.5,0c3.5,0,6.3,2.8,6.3,6.3l0,0c0,3.5-2.8,6.3-6.3,6.3l-29.5,0c-3.5,0-6.3-2.8-6.3-6.3l0,0
		C79.8,706.6,82.7,703.8,86.1,703.8z"/>
	<path class="st3" d="M641,539.1c28.3,7.5,117.1,47.9,137,41.6c19.9-6.4,41.8-36.4,61.2-47.8"/>
	<path class="st3" d="M491.4,566.5c6.7,28.4-45.2,58.7-51.6,90.8c-6.8,34.1,25.7-5,38.2-5c12.3,0-5.8,33.7-8,41.2
		c-6.5,22.2-4.9,30.6,6.3,51"/>
	<path class="st3" d="M251.2,425.3c-3.9,1.3-7.5-2.4-3.8-4.9C252.6,416.9,252.4,424.9,251.2,425.3z"/>
	<path class="st1" d="M217.2,789.9c-4.7,1.9-4.1,9.1-6.5,13.5c-4.3,8.1-12.6,15.3-20.3,20.1c-9.3,5.7-21.8,19.7-25.2,30.1
		c-4.4,13.6,3.2,28.5,19.5,24.7c15.7-3.7,14.9-24,20.4-35.4c5.4-11.2,38.7-38.7,25.2-51.7C226.2,787.2,221.5,788.2,217.2,789.9z"/>
	<path class="st8" d="M419.3,442.1c-12.6,7.2-40.2-7.5-24.6-22.2c7.9-7.5,12.1,2.3,19.4,0c8.4-2.6,8.2-14.9,17-17.6
		c5.7-1.8,7,6.6,6.5,10C435.8,423,428.9,436.6,419.3,442.1z"/>
	<line class="st3" x1="526" y1="529.8" x2="637.3" y2="497.7"/>
	<g>
		<path class="st11" d="M503.9,878.4l7.3,41l59.8-5.5l-14.2-46.2L503.9,878.4z"/>
		<path class="st9" d="M546.7,869.7c5.2,11,9.2,31.5,12.6,43.6"/>
		<path class="st9" d="M536.2,872.5c4.1,14.5,10.7,30.6,12.4,45.5"/>
		<path class="st9" d="M525.6,874.3c4.3,15.2,8.5,31.6,11.9,47"/>
		<path class="st9" d="M514.8,876.2c3.9,13.7,6.5,29.6,9.6,43.7"/>
		<g>
			<path class="st9" d="M492.4,907.1l10.7-18.4c0,0,14.8-0.1,14.3,3.7c-0.5,3.8-6.3,19.8-6.3,19.8L492.4,907.1z"/>
			<path class="st10" d="M496.9,900.5l28.8,8.9c0,0,24.9,5.5,30.1,4.1c5.3-1.5,4-5.6,6.9-7.9c2.9-2.3,8.4-1.8,8.4-1.8
				s1.2,5,2.1,16.3c0.9,11.3-3.3,24.6-3.3,24.6l-88.7,3.4l-45.2,0.2c0,0-8.4-16.9,4.1-22.3c12.7-5.5,24.5-7.3,42.3-14.6
				C491.3,907.7,496.9,900.5,496.9,900.5z"/>
			<path class="st9" d="M570.4,940.9c-2.3-0.6-41.6-1.2-41.6-1.2s-7.1,3.4-28.9,5.9c-21.8,2.5-63.9,2-63.9,2s8.9,7,28.4,5.5
				c22.6-1.7,104.9-2.3,104.9-2.3s4.5-1.9,4.8-4.1C574.2,944.5,572.9,941.6,570.4,940.9z"/>
			<path class="st14" d="M494.5,911.7c0-1.2,1-2.2,2.3-2.2c1.3,0,2.3,1,2.3,2.2c0,1.2-1,2.2-2.3,2.2
				C495.6,913.9,494.5,912.9,494.5,911.7z"/>
			<path class="st14" d="M480.6,918c0-1.2,1-2.2,2.3-2.2c1.3,0,2.3,1,2.3,2.2c0,1.2-1,2.2-2.3,2.2
				C481.7,920.2,480.6,919.2,480.6,918z"/>
			<path class="st14" d="M466.5,923.5c0-1.2,1-2.2,2.3-2.2s2.3,1,2.3,2.2c0,1.2-1,2.2-2.3,2.2C467.6,925.7,466.5,924.7,466.5,923.5z
				"/>
			<path class="st9" d="M491.6,903.7l4.4,6.7"/>
			<path class="st9" d="M478.2,910l4.4,6.7"/>
			<path class="st9" d="M464.1,915.3l4.4,6.7"/>
			<path class="st9" d="M525.3,909.1c0,0-4.8,7.9,0.6,13.7c5.4,5.7,18.2,16.4,18.2,16.4s-0.2-8.1,5.8-11.3c6-3.1,22.3-7.1,22.3-7.1
				l0.9-8.3l-14-0.2c0,0-9.6,1.1-17.6,0C533.4,911.2,525.3,909.1,525.3,909.1z"/>
			<path class="st9" d="M434.1,930.9c0,0,4,4.3,13.3,4c9.3-0.3,15-0.5,15-0.5l0.5-5.2c0,0-6.4,1-6.9-2.1c-0.5-3.1-2-6.6-2-6.6
				s-5.3,1.4-13.8,5C435.2,927.6,434.1,930.9,434.1,930.9z"/>
			<path class="st3" d="M462.3,929.2l30.1-2.2l14.8,17.1"/>
		</g>
	</g>
	<g>
		<path class="st11" d="M904.5,507.5l51.6-31.2l-58-40.6L868.8,474L904.5,507.5z"/>
		<path class="st9" d="M876.3,481.1c5.9-10.6,20.4-25.7,28.2-35.6"/>
		<path class="st9" d="M884.7,488.1c9.4-11.8,30.4-30.6,41.5-40.6"/>
		<path class="st9" d="M892.3,495.6c9.8-12.3,30.4-27.1,41-38.8"/>
		<path class="st9" d="M900.1,503.3c8.9-11.2,34-25.1,43.7-35.8"/>
		<g>
			<path class="st9" d="M956.2,476.3l-12.3,17.3c0,0-14.8-1.2-13.9-4.9c0.8-3.8,8-19.2,8-19.2L956.2,476.3z"/>
			<path class="st10" d="M951.2,482.4L923.3,471c0,0-24.3-7.7-29.6-6.7c-5.4,1-4.5,5.2-7.6,7.2c-3.1,2-15.5-3.7-15.5-3.7
				s6.2-0.3,6.3-11.6c0.1-11.3,5.5-24.2,5.5-24.2l88.7,4.5l45,3.8c0,0,6.8,17.5-6.1,21.9c-13.1,4.3-25.1,5.1-43.4,10.8
				C957.4,475.8,951.2,482.4,951.2,482.4z"/>
			<path class="st9" d="M881.6,435.7c2.2,0.8,41.3,4.9,41.3,4.9s7.4-2.8,29.3-3.3c22-0.5,63.8,3.7,63.8,3.7s-8.2-7.8-27.8-8
				c-22.7-0.3-104.6-7.1-104.6-7.1s-4.7,1.5-5.1,3.6C878.1,431.7,879.1,434.8,881.6,435.7z"/>
			<path class="st14" d="M954.5,471.5c-0.1,1.2-1.2,2.1-2.5,2c-1.3-0.1-2.2-1.2-2.1-2.4c0.1-1.2,1.2-2.1,2.5-2
				C953.7,469.2,954.6,470.3,954.5,471.5z"/>
			<path class="st14" d="M968.9,466.5c-0.1,1.2-1.2,2.1-2.5,2c-1.3-0.1-2.2-1.2-2.1-2.4c0.1-1.2,1.2-2.1,2.5-2
				C968.1,464.2,969,465.2,968.9,466.5z"/>
			<path class="st14" d="M983.5,462.2c-0.1,1.2-1.2,2.1-2.5,2s-2.2-1.2-2.1-2.4c0.1-1.2,1.2-2.1,2.5-2
				C982.6,459.9,983.6,461,983.5,462.2z"/>
			<path class="st9" d="M956.7,479.8l-3.8-7.1"/>
			<path class="st9" d="M970.6,474.6l-3.8-7.1"/>
			<path class="st9" d="M985.2,470.6l-3.7-7.1"/>
			<path class="st9" d="M923.6,471.3c0,0,5.5-7.5,0.6-13.7c-4.9-6.2-16.7-17.9-16.7-17.9s-0.5,8.1-6.8,10.7
				c-6.3,2.6-22.8,5.1-22.8,5.1l-1.6,8.2l13.9,1.4c0,0,9.7-0.3,17.5,1.6C915.7,468.6,923.6,471.3,923.6,471.3z"/>
			<path class="st9" d="M1016.5,457.7c0,0-3.6-4.7-12.9-5.2c-9.3-0.5-15-0.8-15-0.8l-1,5.1c0,0,6.4-0.4,6.7,2.7
				c0.2,3.1,1.4,6.7,1.4,6.7s5.4-0.9,14.2-3.7C1015.1,460.9,1016.5,457.7,1016.5,457.7z"/>
			<path class="st3" d="M988.1,456.9l-30.2-0.5L944.8,438"/>
		</g>
	</g>
	<g>
		<path class="st1" d="M331.6,957.8l-44.5,1l-85.2-1.2l8.3-43.7l37.9-1c0,0-1.3-10,8.6-9.6c7.6,0.3,30,23.5,50.7,29.9
			C335.8,942.1,331.6,957.8,331.6,957.8z"/>
		<path class="st2" d="M331.1,952.1l-96.3-0.5c-2.8,0-5,2-5.1,4.5l0,1.6c0,2.5,2.2,4.5,5,4.5l96.3,0.5c2.8,0,5-2,5.1-4.5l0-1.6
			C336.1,954.2,333.9,952.1,331.1,952.1z"/>
		<path class="st2" d="M242.9,962.3l-45.5-0.7l2.8-23.9c0,0,23.1-1.3,31,6.1C239.2,951.5,242.9,962.3,242.9,962.3z"/>
		<path class="st2" d="M311.9,934.7L258.5,902c0,0-8.5,1.3-10.7,4.8c-2.2,3.4,1.7,8.9,1.7,8.9s30.5,20.4,43.5,24.5
			C302.1,943,311.9,934.7,311.9,934.7z"/>
		<path class="st3" d="M263.9,921.8l-18.5,34.6"/>
		<path class="st3" d="M210.2,913.9l-4.5,31.7"/>
	</g>
	<polyline class="st3" points="208.8,620.6 289.1,725.2 266.9,773.3 	"/>
	<path class="st2" d="M903.5,528.6C889.6,549.7,831,634,775.6,647c-12.5,2.9-27.6,2.9-43.8,1.1c9.7-9.9,25.4-15.8,39.4-21
		c25.3-9.4,31.1-4.9,41.1-13.9c13.5-12.1,6.5-23.4,19.5-45.3c3.9-6.6,19.9-31.4,48.4-37.6C885.6,529.1,894.6,528,903.5,528.6z"/>
	<path class="st2" d="M581.4,601.9l-59.7,84.8l43.4,124.9l-21.3,3.2c-21.5-9.9-37.7-30-39.9-50.1c-1.2-11.2,3.2-11.1,2.4-25.4
		c-1.4-28.3-18.7-33.6-15.7-51.2c2.8-16.5,18.7-15.8,25.8-38.6c4.2-13.6-0.2-17.8,3.8-28.8c3.6-9.7,12.8-21.7,38-31.2
		C564.9,591.7,573.5,595.4,581.4,601.9L581.4,601.9z"/>
	<path class="st2" d="M683.8,520.4c-11.4,5.9-20.8,7.1-27.9,6.8c-17.6-0.8-25.4-11.2-43.5-8c-13.9,2.4-16.6,9.8-26.8,9.4
		c-11.6-0.4-21.3-10.5-28.8-22l62.8-17.4L683.8,520.4z"/>
	<path class="st2" d="M637.3,468.1c0,0-31.9,6-46.5,8.8c-10.7,2-22.8,10.9-48.4,17.8c-0.8-3.1-1.1-6.4,0.5-9.1c2.8-4.9,9-3.3,19.7-8
		c11.3-5,10.1-9.2,18.8-11.7c11.4-3.2,16.3,3.4,22.8-0.3c8-4.6,3.6-16.2,10.1-28c1.5-2.7,3.4-5.1,5.6-7.4L637.3,468.1z"/>
	<g>
		<path class="st0" d="M353,110c0,0,2.7-32.4-5.1-40.9c-6.5-7-35.7-14.2-44.4-0.4c-8.7,13.8,11,56.1,11,56.1l7.3,67.7l54.1-2.7
			C367.3,148.9,353,110,353,110z"/>
		<path class="st15" d="M317.1,99.2c7.7-13.4-0.5-21.8-0.5-21.8s16.8,1.1,19.5-7.3c3.6-11.5-21.5-8.7-21.5-8.7"/>
		<path class="st15" d="M332.2,90c1.1-4.2-0.7-9.9-2.3-13.8"/>
		<path class="st15" d="M341.9,85c1-5.5-0.2-12.9-4.6-16.8"/>
	</g>
	<g>
		<path class="st5" d="M610.7,148.8l-13.9-55.7l0.8-0.4L594,78l-55.7,28.2l3.8,15.4l0.8-0.4l12.7,51.2c-3.7-1-8.3,0-12.3,3.1
			c-5.8,4.6-7.8,11.8-4.4,16.2c3.4,4.4,10.9,4.3,16.8-0.3c5.9-4.5,7.8-11.8,4.4-16.2c-0.1-0.2-0.3-0.3-0.5-0.5l-11.9-47.8l47.9-24.4
			l10.9,44c-3.7-1-8.4,0-12.4,3.1c-5.9,4.6-7.8,11.8-4.4,16.2c3.4,4.4,10.9,4.3,16.8-0.3c5.9-4.6,7.8-11.8,4.4-16.2
			C611,149,610.8,148.9,610.7,148.8z M547,123.5l-1-4l47.8-24.8l1.1,4.3L547,123.5z"/>
		<path class="st5" d="M451.8,207.3c-0.4-0.1-0.9,0-1.1,0.4c-5.1,7.1-10.2,11-15.4,11.6c-0.9,0.1-1.7,0.1-2.6,0.1
			c2.5-1.4,4.2-4,4.4-7c0.3-4.7-3.4-8.8-8.1-9c-4.7-0.3-8.8,3.4-9,8.1c-0.3,4.7,3.4,8.8,8.1,9c0.2,0,0.4,0,0.6,0
			c2.3,0.8,4.6,1.1,6.9,0.8c5-0.6,10-4,14.8-9.9l-1,18.5c-5,6.9-10.1,10.7-15.2,11.4c-0.9,0.1-1.7,0.1-2.6,0.1c2.5-1.4,4.2-4,4.4-7
			c0.2-4.7-3.4-8.8-8.1-9c-4.7-0.2-8.8,3.4-9,8.1c-0.3,4.7,3.4,8.8,8.1,9c0.2,0,0.4,0,0.6,0c1.7,0.6,3.3,0.9,5,0.9
			c0.6,0,1.2,0,1.9-0.1c5-0.6,10-4,14.8-9.9l-1.7,32.4l1.9,0.1l3.1-57.5C452.4,207.9,452.2,207.5,451.8,207.3z"/>
	</g>
	<path class="st3" d="M653,332.3c-7.4,19.7-15.8,39.1-25.1,58"/>
	<path class="st3" d="M668.5,288.6c-0.1,4-0.9,8.1-2.3,11.8c-0.9,2.2-2,4.5-1.8,6.8c2.3,0.9,5.2-1.3,5-3.8c-0.5-0.3-1.2,0.1-1.6,0.6
		c-4,4.3-6.3,10-6.4,15.8"/>
	<path class="st3" d="M651.9,303.4c-5.5,13.2-10.9,26.3-16.4,39.5"/>
	<line class="st3" x1="249.7" y1="810.4" x2="225.8" y2="862"/>
	<path class="st3" d="M692.5,624.3c3.8,1.3,7.7,2.2,11.6,2.7c6.3,0.8,12.9,0.7,18.9,2.9"/>
	<path class="st3" d="M723.1,623c9.3-0.2,18.6-1.3,27.3-4.5c4.3-1.6,8.4-3.7,12.6-5.5c10.6-4.5,22-6.9,33.3-8.7"/>
	<path class="st3" d="M791,596.6c-15.9,7.5-33.4,11.6-51,12"/>
	<path class="st16" d="M246.1,791.6c-0.9-0.1-1.7,0.5-2.4,1.2c-2.7,2.6-0.3,5.5-2.4,8.7"/>
	<path class="st3" d="M276.7,633.9c5.5,10.9-7.7,16.1,19.7,30.8"/>
</g>
</svg>
