<?xml version="1.0" encoding="UTF-8" standalone="no"?>
<!-- Created with Inkscape (http://www.inkscape.org/) -->

<svg
   version="1.0"
   width="131.56599"
   height="131.56599"
   id="svg2"
   sodipodi:docname="favicon.svg"
   inkscape:version="1.2.1 (9c6d41e410, 2022-07-14, custom)"
   inkscape:export-filename="forte_512x512.png"
   inkscape:export-xdpi="373.59207"
   inkscape:export-ydpi="373.59207"
   xmlns:inkscape="http://www.inkscape.org/namespaces/inkscape"
   xmlns:sodipodi="http://sodipodi.sourceforge.net/DTD/sodipodi-0.dtd"
   xmlns="http://www.w3.org/2000/svg"
   xmlns:svg="http://www.w3.org/2000/svg">
  <sodipodi:namedview
     id="namedview6"
     pagecolor="#ffffff"
     bordercolor="#666666"
     borderopacity="1.0"
     inkscape:showpageshadow="2"
     inkscape:pageopacity="0.0"
     inkscape:pagecheckerboard="0"
     inkscape:deskcolor="#d1d1d1"
     showgrid="false"
     inkscape:zoom="2.9602411"
     inkscape:cx="53.205126"
     inkscape:cy="57.93447"
     inkscape:window-width="1920"
     inkscape:window-height="1020"
     inkscape:window-x="0"
     inkscape:window-y="32"
     inkscape:window-maximized="1"
     inkscape:current-layer="svg2" />
  <defs
     id="defs4" />
  <rect
     style="fill:#000000;fill-opacity:1;fill-rule:evenodd;stroke-width:34.782;stroke-linecap:round;stroke-linejoin:round"
     id="rect341"
     width="131.56596"
     height="131.56598"
     x="1.8369141e-05"
     y="7.4121094e-06"
     ry="65.782982" />
  <path
     d="m 74.071249,57.293818 h 5.927357 c 0.824606,-0.02093 1.511106,-0.305555 2.0595,-0.85394 0.548331,-0.548344 0.832978,-1.234845 0.853941,-2.059503 -0.02095,-0.824618 -0.30561,-1.511119 -0.853941,-2.05951 -0.548394,-0.548338 -1.234894,-0.832982 -2.0595,-0.853939 h -4.219478 c 0.680194,-3.024343 1.605299,-5.816394 2.77531,-8.376161 1.169952,-2.559691 3.02434,-3.920137 5.563176,-4.081337 h 0.703245 c 0.575536,-0.01459 1.082036,0.03984 1.519516,0.163258 0.43739,0.123525 0.66762,0.403984 0.69069,0.841383 -0.15911,1.404435 -0.79538,2.337911 -1.908814,2.800423 -1.113507,0.462587 -1.74978,1.370944 -1.908812,2.725077 0.03349,1.239083 0.468796,2.277209 1.306028,3.114372 0.837158,0.837232 1.875288,1.272573 3.114368,1.306028 1.75599,-0.08369 3.0662,-0.895772 3.93065,-2.436241 0.86436,-1.540413 1.29551,-3.306895 1.29347,-5.299458 -0.0629,-2.526208 -0.91677,-4.631753 -2.56183,-6.316658 -1.64513,-1.684812 -3.70463,-2.559685 -6.178511,-2.624613 -4.665317,0.173769 -8.897345,2.03653 -12.696097,5.588295 -3.798804,3.551851 -6.599226,7.75039 -8.401273,12.595632 h -5.324578 c -0.824647,0.02093 -1.511148,0.305601 -2.059503,0.853939 -0.548374,0.548391 -0.833019,1.234892 -0.85394,2.05951 0.02093,0.824658 0.305566,1.511159 0.85394,2.059503 0.548355,0.548385 1.234856,0.83303 2.059503,0.85394 h 3.717157 l -6.6306,26.421947 c -0.525347,2.26252 -1.358359,4.29272 -2.499036,6.09061 -1.140683,1.79786 -2.752283,2.74808 -4.834813,2.85066 h -0.602785 c -0.623707,0.0167 -1.159512,-0.0418 -1.607416,-0.17582 -0.447897,-0.13396 -0.682315,-0.44373 -0.703249,-0.92929 0.159074,-1.35417 0.795343,-2.26253 1.908814,-2.72507 1.113471,-0.46256 1.74974,-1.39604 1.908807,-2.80042 -0.02721,-1.23488 -0.44999,-2.25626 -1.268353,-3.06415 -0.818356,-0.807904 -1.869039,-1.226502 -3.152047,-1.255792 -1.712064,0.07741 -3.009716,0.876962 -3.892971,2.398562 -0.883233,1.5216 -1.326945,3.30065 -1.331142,5.33714 0.0628,2.52204 0.91674,4.61084 2.561825,6.26642 1.645096,1.65554 3.7046,2.51366 6.178517,2.57438 3.31406,-0.13211 6.442072,-1.60929 9.384048,-4.43157 2.941963,-2.82229 5.504405,-6.19712 7.68733,-10.1245 2.182901,-3.927386 3.792795,-7.614768 4.829705,-11.062165 z"
     id="text2502"
     style="font-style:normal;font-variant:normal;font-weight:normal;font-stretch:normal;font-size:174.261px;font-family:Emmentaler;-inkscape-font-specification:Emmentaler;text-align:center;text-anchor:middle;fill:#ffffff;fill-opacity:1;stroke:none;stroke-width:0.576519px;stroke-linecap:butt;stroke-linejoin:miter;stroke-opacity:1" />
</svg>
