<?xml version="1.0" encoding="UTF-8" standalone="no"?>
<!-- Created with Inkscape (http://www.inkscape.org/) -->

<svg
   width="66.145836mm"
   height="66.145836mm"
   viewBox="0 0 66.145836 66.145836"
   version="1.1"
   id="svg5"
   xml:space="preserve"
   inkscape:version="1.2.2 (b0a8486541, 2022-12-01)"
   sodipodi:docname="empty.svg"
   xmlns:inkscape="http://www.inkscape.org/namespaces/inkscape"
   xmlns:sodipodi="http://sodipodi.sourceforge.net/DTD/sodipodi-0.dtd"
   xmlns="http://www.w3.org/2000/svg"
   xmlns:svg="http://www.w3.org/2000/svg"><sodipodi:namedview
     id="namedview7"
     pagecolor="#ffffff"
     bordercolor="#666666"
     borderopacity="1.0"
     inkscape:showpageshadow="2"
     inkscape:pageopacity="0.0"
     inkscape:pagecheckerboard="0"
     inkscape:deskcolor="#d1d1d1"
     inkscape:document-units="mm"
     showgrid="false"
     inkscape:zoom="1.44672"
     inkscape:cx="16.93486"
     inkscape:cy="225.68292"
     inkscape:window-width="1920"
     inkscape:window-height="1020"
     inkscape:window-x="0"
     inkscape:window-y="32"
     inkscape:window-maximized="1"
     inkscape:current-layer="layer1" /><defs
     id="defs2" /><g
     inkscape:label="Layer 1"
     inkscape:groupmode="layer"
     id="layer1"
     transform="translate(-35.972218,-45.500683)"><rect
       style="fill:#ffffff;fill-opacity:1;fill-rule:evenodd;stroke:none;stroke-width:1;stroke-linecap:round;stroke-linejoin:round"
       id="rect184"
       width="66.145836"
       height="66.145836"
       x="35.972218"
       y="45.500683" /><g
       style="fill:currentColor"
       id="g1949"
       transform="matrix(1.0583333,0,0,1.0583333,60.57847,70.106935)"><path
         d="m 8,0 a 1,1 0 0 1 1,1 v 5.268 l 4.562,-2.634 a 1,1 0 1 1 1,1.732 L 10,8 l 4.562,2.634 a 1,1 0 1 1 -1,1.732 L 9,9.732 V 15 A 1,1 0 1 1 7,15 V 9.732 l -4.562,2.634 a 1,1 0 1 1 -1,-1.732 L 6,8 1.438,5.366 a 1,1 0 0 1 1,-1.732 L 7,6.268 V 1 A 1,1 0 0 1 8,0 Z"
         id="path1940" /></g></g></svg>
