<?xml version="1.0" encoding="UTF-8" standalone="no"?>
<!-- Created with Inkscape (http://www.inkscape.org/) -->

<svg
   width="66.145836mm"
   height="66.145836mm"
   viewBox="0 0 66.145836 66.145836"
   version="1.1"
   id="svg5"
   xml:space="preserve"
   inkscape:version="1.2.2 (b0a8486541, 2022-12-01)"
   sodipodi:docname="station.svg"
   xmlns:inkscape="http://www.inkscape.org/namespaces/inkscape"
   xmlns:sodipodi="http://sodipodi.sourceforge.net/DTD/sodipodi-0.dtd"
   xmlns="http://www.w3.org/2000/svg"
   xmlns:svg="http://www.w3.org/2000/svg"><sodipodi:namedview
     id="namedview7"
     pagecolor="#ffffff"
     bordercolor="#666666"
     borderopacity="1.0"
     inkscape:showpageshadow="2"
     inkscape:pageopacity="0.0"
     inkscape:pagecheckerboard="0"
     inkscape:deskcolor="#d1d1d1"
     inkscape:document-units="mm"
     showgrid="false"
     inkscape:zoom="1.6597416"
     inkscape:cx="-91.881772"
     inkscape:cy="153.93963"
     inkscape:window-width="1920"
     inkscape:window-height="1020"
     inkscape:window-x="0"
     inkscape:window-y="32"
     inkscape:window-maximized="1"
     inkscape:current-layer="layer1" /><defs
     id="defs2" /><g
     inkscape:label="Layer 1"
     inkscape:groupmode="layer"
     id="layer1"
     transform="translate(-35.972218,-45.500683)"><rect
       style="fill:#ffffff;fill-opacity:1;fill-rule:evenodd;stroke:none;stroke-width:1;stroke-linecap:round;stroke-linejoin:round"
       id="rect184"
       width="66.145836"
       height="66.145836"
       x="35.972218"
       y="45.500683" /><g
       style="fill:currentColor"
       id="g300"
       transform="matrix(1.0583278,0,0,1.0583278,60.578778,68.944084)"><path
         d="m 3.05,3.05 a 7,7 0 0 0 0,9.9 0.5,0.5 0 0 1 -0.707,0.707 8,8 0 0 1 0,-11.314 0.5,0.5 0 0 1 0.707,0.707 z m 2.122,2.122 a 4,4 0 0 0 0,5.656 0.5006316,0.5006316 0 1 1 -0.708,0.708 5,5 0 0 1 0,-7.072 0.5006316,0.5006316 0 0 1 0.708,0.708 z m 5.656,-0.708 a 0.5,0.5 0 0 1 0.708,0 5,5 0 0 1 0,7.072 0.5006316,0.5006316 0 1 1 -0.708,-0.708 4,4 0 0 0 0,-5.656 0.5,0.5 0 0 1 0,-0.708 z m 2.122,-2.12 a 0.5,0.5 0 0 1 0.707,0 8,8 0 0 1 0,11.313 0.5,0.5 0 0 1 -0.707,-0.707 7,7 0 0 0 0,-9.9 0.5,0.5 0 0 1 0,-0.707 z M 6,8 A 2,2 0 1 1 8.5,9.937 V 15.5 a 0.5,0.5 0 0 1 -1,0 V 9.937 A 2,2 0 0 1 6,8 Z"
         id="path291" /></g></g></svg>
